<svg xmlns="http://www.w3.org/2000/svg" width="43.046" height="33.458" viewBox="0 0 43.046 33.458"><defs><style>.a{fill:#ffc400;}.b{fill:none;stroke:#ffc400;stroke-width:3px;}</style></defs><g transform="translate(-1296.364 302.421)"><path class="a" d="M27.281-12.595a19.979,19.979,0,0,0-27.063,0,.683.683,0,0,0-.015.987l1.471,1.46a.7.7,0,0,0,.962.016,16.486,16.486,0,0,1,22.226,0,.7.7,0,0,0,.963-.016l1.471-1.46A.683.683,0,0,0,27.281-12.595ZM13.75-4.125A2.75,2.75,0,0,0,11-1.375a2.75,2.75,0,0,0,2.75,2.75,2.75,2.75,0,0,0,2.75-2.75A2.75,2.75,0,0,0,13.75-4.125Zm8.708-3.592a13.191,13.191,0,0,0-17.417,0,.679.679,0,0,0-.025.995L6.5-5.262a.7.7,0,0,0,.947.034,9.678,9.678,0,0,1,12.611,0A.7.7,0,0,0,21-5.262l1.48-1.461A.679.679,0,0,0,22.458-7.717Z" transform="translate(1303.864 -284.546)"/><line class="b" x2="43.046" transform="translate(1296.364 -270.463)"/></g></svg>